<?xml version="1.0" encoding="UTF-8" standalone="no"?>
<!-- Created with Inkscape (http://www.inkscape.org/) -->

<svg
   xmlns:ns="&amp;ns_sfw;"
   xmlns:dc="http://purl.org/dc/elements/1.1/"
   xmlns:cc="http://creativecommons.org/ns#"
   xmlns:rdf="http://www.w3.org/1999/02/22-rdf-syntax-ns#"
   xmlns:svg="http://www.w3.org/2000/svg"
   xmlns="http://www.w3.org/2000/svg"
   xmlns:inkscape="http://www.inkscape.org/namespaces/inkscape"
   version="1.1"
   width="270"
   height="616"
   viewBox="0 0 270 616"
   id="Layer_1"
   xml:space="preserve"><defs
     id="defs67" /><metadata
     id="metadata3"><ns:sfw><ns:slices /><ns:sliceSourceBounds
         y="-697.7"
         x="858.5"
         bottomLeftOrigin="true"
         height="608.9"
         width="226" /></ns:sfw><rdf:RDF><cc:Work
         rdf:about=""><dc:format>image/svg+xml</dc:format><dc:type
           rdf:resource="http://purl.org/dc/dcmitype/StillImage" /></cc:Work></rdf:RDF></metadata><g
     id="g5"><g
       id="g7"><g
         id="g9"><g
           id="g11"><path
             d="m 38.5,181.6 c 0,-55.3 0,-110.5 0,-165.8 63.7,0 127.3,0 191,0 0,55.3 0,110.5 0,165.8 -1.5,-8.4 -5.3,-15.1 -12.1,-19.4 -5.6,-3.5 -11.4,-6.5 -17.2,-9.7 -5.6,-3 -11.2,-6 -16.3,-8.7 6,-7 11.8,-13.5 17.3,-20.3 4.9,-6.1 10,-12.2 13.9,-19 4.7,-8.3 3.4,-17 -2.4,-24.1 1.1,12 -3.1,21.6 -11.2,28.4 -10.2,8.6 -21.1,16.2 -31.9,23.9 -0.8,0.6 -3.4,0 -4.1,-1 -4.3,-5.7 -8.3,-11.7 -12.2,-17.2 -3.7,10.5 3.8,18 9.4,26.3 -6,9.4 -8,19.7 -1.8,29.2 4.9,7.5 11.6,13.8 18.1,19.7 4.5,4 10.3,6.5 15.5,9.6 -17.3,-16.2 -21.5,-32.4 -16.2,-46.5 4.2,2.7 8.6,4.8 12.3,8 5.7,4.9 11.5,10 16,16.1 8.5,11.4 6.3,27 -4.4,40.4 -1.5,1.9 -2.5,4.4 -3.8,6.6 l 0,0 c -53.3,0 -106.7,0 -160,0 0,-9.9 0,-19.7 0,-29.4 0.4,1 0.8,1.9 1.1,2.9 3.5,12.2 8.7,20 22.3,18.9 5,-0.4 10.1,-0.7 16,-1.2 -18.5,-7.7 -26,-13.8 -37.5,-37.8 -0.6,1.6 -1.2,2.9 -1.8,4.3 z M 115.5,65 c 4,11.6 1.4,21.8 -5.1,30.7 -4.5,6.2 -10.1,11.6 -15.6,16.8 -10.6,9.9 -21.8,19 -32.1,29.3 -16.7,16.6 -14.4,37.2 1,52.4 13,12.8 29,19.7 46.2,27 C 104.3,216.5 99.5,213 95.1,208.9 84.5,199 76.6,187.3 77.4,171.2 c 0.6,-12.7 6.8,-22.9 14.4,-32 3.3,-3.9 6.9,-7.4 10.3,-11.1 0,37.8 22.8,56.1 47.7,72.8 -2.6,-3.7 -6,-6.8 -8.8,-10.3 -7.7,-9.3 -13.6,-19.6 -14.7,-32.4 -1.7,-18.5 5.4,-33.3 17,-45.7 10.9,-11.6 22.8,-22.3 34,-33.6 10.9,-11 20.1,-23.2 21.5,-40.3 0.7,-8.5 -2.4,-16.7 -8.1,-19.9 0.3,1.9 0.6,3.8 0.8,5.8 0.8,11.2 -3.9,19.9 -10.6,27.6 -13.7,15.8 -30,28 -46.6,39.6 -3.9,2.7 -8,5.3 -12.8,8.4 4.9,-20.3 3.2,-30 -6,-35.1 z m 12.8,4.5 c 0.6,1 1.3,3.6 3,4.9 4.6,3.7 12.9,2.6 17,-1.6 3.6,-3.7 4.4,-10.6 1.2,-13.6 -3.8,-3.5 -8.5,-3.9 -13.1,-1.8 -4.2,1.9 -7.6,4.9 -8.1,12.1 z m 47.6,36.7 c -7,-0.1 -11.3,3.1 -11.3,8.5 0,4.7 3.6,7.9 8.9,8 6.2,0.1 11,-4.2 10.9,-9.9 0,-4.5 -2.7,-6.5 -8.5,-6.6 z"
             inkscape:connector-curvature="0"
             id="path13"
             style="fill:#ffffff" /><path
             d="m 198.5,224.1 c 1.2,-2.2 2.2,-4.7 3.8,-6.6 10.7,-13.5 12.9,-29.1 4.4,-40.4 -4.5,-6.1 -10.4,-11.1 -16,-16.1 -3.7,-3.2 -8.1,-5.4 -12.3,-8 -5.3,14.1 -1.1,30.3 16.2,46.5 -5.2,-3.1 -11,-5.6 -15.5,-9.6 -6.6,-5.9 -13.3,-12.2 -18.1,-19.7 -6.2,-9.5 -4.2,-19.9 1.8,-29.2 -5.6,-8.3 -13.1,-15.7 -9.4,-26.3 3.8,5.5 7.9,11.5 12.2,17.2 0.7,1 3.2,1.6 4.1,1 10.8,-7.8 21.7,-15.3 31.9,-23.9 8,-6.8 12.3,-16.4 11.2,-28.4 5.8,7 7.1,15.8 2.4,24.1 -3.9,6.9 -9,12.9 -13.9,19 -5.5,6.8 -11.3,13.3 -17.3,20.3 5.1,2.7 10.7,5.6 16.3,8.7 5.8,3.1 11.6,6.2 17.2,9.7 6.8,4.3 10.6,11.1 12.1,19.4 0,0.7 0,1.5 0,2.2 -1.6,10.7 -6.9,19 -14.4,25.8 -5.5,4.8 -11.2,9.5 -16.7,14.3 z"
             inkscape:connector-curvature="0"
             id="path15"
             style="fill-rule:evenodd" /><path
             d="m 38.5,181.6 c 0.6,-1.3 1.2,-2.7 1.8,-4.1 11.5,24 19.1,30.1 37.5,37.8 -5.9,0.4 -10.9,0.8 -16,1.2 -13.6,1.1 -18.8,-6.7 -22.3,-18.9 -0.3,-1 -0.7,-1.9 -1.1,-2.9 0.1,-4.4 0.1,-8.8 0.1,-13.1 z"
             inkscape:connector-curvature="0"
             id="path17"
             style="fill-rule:evenodd" /><path
             d="m 198.5,224.1 c 5.6,-4.8 11.2,-9.5 16.6,-14.5 7.4,-6.8 12.8,-15.1 14.4,-25.8 0,13.4 0,26.9 0,40.3 -10.3,0 -20.7,0 -31,0 l 0,0 z"
             inkscape:connector-curvature="0"
             id="path19"
             style="fill:#ffffff;fill-rule:evenodd" /><path
             d="m 115.5,65 c 9.1,5.1 10.9,14.9 6,34.9 4.8,-3.1 8.8,-5.7 12.8,-8.4 16.7,-11.7 33,-23.9 46.7,-39.7 6.6,-7.7 11.4,-16.4 10.6,-27.6 -0.1,-1.9 -0.5,-3.9 -0.8,-5.8 5.7,3.2 8.9,11.4 8.1,19.9 -1.4,17.1 -10.6,29.3 -21.5,40.3 -11.3,11.3 -23.1,22 -34,33.6 -11.6,12.4 -18.7,27.2 -17,45.7 1.2,12.9 7.1,23.1 14.7,32.4 2.9,3.5 6.2,6.6 8.8,10.3 -24.8,-16.7 -47.7,-35 -47.7,-72.8 -3.5,3.7 -7.1,7.2 -10.3,11.1 -7.7,9.1 -13.8,19.3 -14.4,32 -0.8,16.1 7.1,27.8 17.7,37.7 4.4,4.1 9.2,7.7 14.8,12.3 -17.2,-7.4 -33.2,-14.3 -46.2,-27 -15.4,-15.2 -17.7,-35.7 -1,-52.4 10.3,-10.2 21.5,-19.3 32.1,-29.3 5.5,-5.2 11.1,-10.6 15.6,-16.8 6.5,-8.6 9,-18.9 5,-30.4 z"
             inkscape:connector-curvature="0"
             id="path21"
             style="fill-rule:evenodd" /><path
             d="m 128.3,69.5 c 0.4,-7.2 3.8,-10.1 8.1,-12.1 4.6,-2.1 9.2,-1.7 13.1,1.8 3.3,3 2.5,9.8 -1.2,13.6 -4.2,4.3 -12.5,5.3 -17,1.6 -1.6,-1.3 -2.4,-3.9 -3,-4.9 z"
             inkscape:connector-curvature="0"
             id="path23"
             style="fill-rule:evenodd" /><path
             d="m 175.9,106.2 c 5.8,0.1 8.4,2.1 8.5,6.6 0.1,5.6 -4.7,10 -10.9,9.9 -5.3,-0.1 -8.9,-3.3 -8.9,-8 0,-5.5 4.3,-8.7 11.3,-8.5 z"
             inkscape:connector-curvature="0"
             id="path25"
             style="fill-rule:evenodd" /></g></g><path
         d="m 48,233 c 0,7.1 0.4,8.7 3,13.3 1.7,3 3,5.8 3,6.3 0,0.5 -2,2 -4.4,3.2 -4.5,2.4 -9.6,8.5 -12.1,14.6 -2.1,4.9 -1.9,15.2 0.4,20.2 5.7,12.6 22.6,16.9 33.2,8.4 2,-1.6 3.9,-2.6 4.3,-2.3 0.3,0.4 0.6,17.7 0.6,38.5 V 373 h 8.5 8.5 v -22.3 c 0,-18.5 0.3,-22.6 1.6,-24.5 1.8,-2.5 6,-2.9 9,-0.8 1.8,1.3 1.9,3 2.2,24.5 l 0.3,23.1 h 8.5 8.4 l 0,-23.4 0.7,-22.7 1.2,-2.9 c 2.1,-2.8 12.6,-3.9 15.6,2 1.2,2.3 1.5,7.2 1.5,25 v 22 h 8.5 8.5 v -22.1 c 0,-13.3 0.4,-22.8 1,-24 1.4,-2.5 8.5,-2.7 9.4,-0.3 0.3,0.9 0.6,11.7 0.6,24 V 373 h 8.5 8.5 v -37.5 c 0,-20.6 0.3,-37.5 0.6,-37.5 0.3,0 1.8,0.9 3.3,2 4.4,3 11.2,4.2 17.2,2.9 4.1,-0.9 6.2,-2.1 10,-5.9 6.9,-6.9 8.6,-15 5.3,-25.9 -1.5,-5.2 -7.6,-12.7 -13.3,-16.2 l -2.5,-1.5 3.7,-6.1 c 3.5,-5.7 3.7,-6.6 3.7,-14.2 V 225 H 131.5 48 v 8 z m 154.2,28 c 14.4,4 19.2,24.9 7.5,32 -8.9,5.5 -19.7,-1.1 -19.7,-11.9 0,-5.8 5.2,-9.5 10.5,-7.5 1.8,0.7 5,6.3 4.1,7.2 -0.4,0.3 -2.9,0.7 -5.7,0.8 -2.8,0.1 -5.3,0.5 -5.6,0.7 -1,1.1 2.9,6.8 5.3,7.7 4.7,1.8 8.4,1.2 11.5,-1.9 5.3,-5.3 3.2,-15.8 -4.2,-20.9 -2.9,-2 -4.4,-2.3 -9.6,-2 -5.3,0.3 -6.8,0.9 -9.4,3.3 -3.7,3.5 -5.9,8.2 -5.9,12.5 v 3 H 130.6 80.3 l -0.7,-4.9 c -0.5,-3.7 -1.6,-5.9 -4.4,-9.1 -3.5,-3.9 -4.3,-4.3 -9.5,-4.8 -3.4,-0.3 -6.9,0.1 -8.7,0.8 -6.9,2.9 -11.2,12.1 -8.6,18.3 3.1,7.5 10.5,9 16.2,3.3 1.9,-1.9 3.4,-3.8 3.4,-4.4 0,-1.2 -6.8,-2.3 -9.7,-1.6 -1.9,0.5 -2.3,0.2 -2.3,-1.5 0,-3 4.4,-7.1 7.5,-7.1 3.6,0 7.5,4.2 7.5,8.1 0,15.1 -19.1,19.1 -25.2,5.2 -1.8,-4.2 -1.9,-5.2 -0.8,-10.1 1.5,-6.6 6.5,-12.6 12.5,-14.7 3.3,-1.2 16.1,-1.4 72.5,-1.5 44.2,0 69.8,0.4 72.2,1 z"
         inkscape:connector-curvature="0"
         id="path27"
         style="fill:#010101" /><path
         d="m 57.7,382.6 0.3,4.7 69,0.3 c 76.6,0.2 71.1,-0.3 73.2,6.1 1.2,3.7 -0.1,8.4 -2.9,11.1 -1.8,1.7 -3.7,1.8 -71.2,1.8 H 56.6 v 4.5 4.5 h 72.8 72.8 l 3.3,-2.3 c 5.4,-3.7 8.3,-8.6 8.6,-15 0.4,-6.3 -0.9,-9.7 -5.5,-14.6 -5.4,-5.9 -0.6,-5.5 -79.4,-5.5 H 57.4 l 0.3,4.4 z"
         inkscape:connector-curvature="0"
         id="path29"
         style="fill:#010101" /><path
         d="m 65.5,392.3 c 0,0.6 21.6,0.9 62.8,0.9 41.2,0 62.8,-0.3 62.8,-0.9 0,-0.6 -21.6,-0.9 -62.8,-0.9 -41.2,0 -62.8,0.2 -62.8,0.9 z"
         inkscape:connector-curvature="0"
         id="path31"
         style="fill:#010101" /><path
         d="m 65.5,397.2 c 0,1.2 7.6,1.3 62.8,1.3 55.2,0 62.8,-0.2 62.8,-1.3 0,-1.2 -7.6,-1.3 -62.8,-1.3 -55.2,0 -62.8,0.1 -62.8,1.3 z"
         inkscape:connector-curvature="0"
         id="path33"
         style="fill:#010101" /><path
         d="m 65.7,402.2 c 0.4,0.9 13.9,1.2 62.9,1.4 55.3,0.2 62.6,0 62.6,-1.2 0,-1.2 -7.5,-1.3 -62.9,-1.3 -49.9,0.1 -62.9,0.3 -62.6,1.1 z"
         inkscape:connector-curvature="0"
         id="path35"
         style="fill:#010101" /><path
         d="m 48.2,425.2 0.3,5.3 77.4,0.3 c 85.9,0.2 79.8,-0.3 82.1,6.8 1.4,4.1 -0.1,9.4 -3.3,12.4 -2,1.9 -4.1,2 -79.9,2 H 47 v 5 5 h 81.7 81.7 l 3.7,-2.6 c 6.1,-4.2 9.3,-9.6 9.7,-16.8 0.5,-7.1 -1,-10.9 -6.2,-16.4 -6.1,-6.6 -0.7,-6.2 -89.1,-6.2 H 47.9 l 0.3,5.2 z"
         inkscape:connector-curvature="0"
         id="path37"
         style="fill:#010101" /><path
         d="m 57,436 c 0,0.7 24.2,1 70.5,1 46.3,0 70.5,-0.3 70.5,-1 0,-0.7 -24.2,-1 -70.5,-1 -46.3,0 -70.5,0.3 -70.5,1 z"
         inkscape:connector-curvature="0"
         id="path39"
         style="fill:#010101" /><path
         d="m 57,441.5 c 0,1.3 8.5,1.5 70.5,1.5 62,0 70.5,-0.2 70.5,-1.5 0,-1.3 -8.5,-1.5 -70.5,-1.5 -62,0 -70.5,0.2 -70.5,1.5 z"
         inkscape:connector-curvature="0"
         id="path41"
         style="fill:#010101" /><path
         d="m 57.2,447.2 c 0.4,1 15.6,1.4 70.6,1.6 62,0.2 70.2,0 70.2,-1.3 0,-1.3 -8.4,-1.5 -70.6,-1.5 -56,0 -70.5,0.3 -70.2,1.2 z"
         inkscape:connector-curvature="0"
         id="path43"
         style="fill:#010101" /></g><g
       id="g45"><path
         d="m 99.1,521.2 h -4.6 c -0.9,-3.2 -2.7,-6.7 -5.4,-10.4 -2.7,-3.7 -5.3,-5.7 -7.8,-6.1 -1.3,-0.2 -2.8,-0.3 -4.5,-0.4 -1.7,-0.1 -3.7,-0.1 -5.9,-0.1 H 56.2 v 35 h 10 c 3,0 5.4,-0.3 7.1,-1 1.7,-0.6 3.1,-1.6 4.3,-2.9 0.8,-0.9 1.6,-2.3 2.2,-4.2 0.6,-1.9 1.1,-3.9 1.3,-6.1 h 4.6 v 34.3 h -4.6 c -0.1,-1.8 -0.5,-3.8 -1.3,-6.1 -0.8,-2.3 -1.5,-4 -2.3,-5 -1.2,-1.5 -2.8,-2.5 -4.6,-3.1 -1.9,-0.6 -4.1,-0.8 -6.7,-0.8 h -10 v 30 c 0,1.3 0.3,2.6 0.8,3.6 0.5,1 1.5,1.9 2.8,2.6 0.6,0.3 1.9,0.6 4,1 2,0.4 3.6,0.6 4.7,0.7 v 4.4 H 30.7 v -4.4 c 1.2,-0.1 2.9,-0.2 4.9,-0.4 2,-0.2 3.4,-0.4 4,-0.7 1.2,-0.5 2.1,-1.3 2.7,-2.4 0.6,-1 0.8,-2.3 0.8,-3.8 V 512 c 0,-1.4 -0.2,-2.5 -0.7,-3.6 -0.5,-1 -1.4,-1.9 -2.8,-2.5 -1.1,-0.5 -2.6,-1 -4.5,-1.4 -1.9,-0.4 -3.3,-0.7 -4.5,-0.7 v -4.4 H 99 v 21.8 z"
         inkscape:connector-curvature="0"
         id="path47" /><path
         d="m 173.9,521.2 h -4.6 c -0.9,-3.2 -2.7,-6.7 -5.4,-10.4 -2.7,-3.7 -5.3,-5.7 -7.8,-6.1 -1.3,-0.2 -2.8,-0.3 -4.5,-0.4 -1.7,-0.1 -3.7,-0.1 -5.9,-0.1 H 131 v 35 h 10 c 3,0 5.4,-0.3 7.1,-1 1.7,-0.6 3.1,-1.6 4.3,-2.9 0.8,-0.9 1.6,-2.3 2.2,-4.2 0.6,-1.9 1.1,-3.9 1.3,-6.1 h 4.6 v 34.3 H 156 c -0.1,-1.8 -0.5,-3.8 -1.3,-6.1 -0.7,-2.3 -1.5,-4 -2.3,-5 -1.2,-1.5 -2.8,-2.5 -4.7,-3.1 -1.9,-0.6 -4.1,-0.8 -6.7,-0.8 h -10 v 30 c 0,1.3 0.3,2.6 0.8,3.6 0.5,1.1 1.5,1.9 2.8,2.6 0.6,0.3 1.9,0.6 4,1 2,0.4 3.6,0.6 4.7,0.7 v 4.4 h -37.8 v -4.4 c 1.2,-0.1 2.9,-0.2 4.9,-0.4 2,-0.2 3.4,-0.4 4,-0.7 1.2,-0.5 2.1,-1.3 2.7,-2.4 0.6,-1 0.8,-2.3 0.8,-3.8 V 512 c 0,-1.4 -0.2,-2.5 -0.7,-3.6 -0.5,-1 -1.4,-1.9 -2.8,-2.5 -1.1,-0.5 -2.6,-1 -4.5,-1.4 -1.9,-0.4 -3.3,-0.7 -4.5,-0.7 v -4.4 h 68.4 v 21.8 z"
         inkscape:connector-curvature="0"
         id="path49" /><path
         d="m 251.4,586.5 h -36.2 v -4.4 c 3.2,-0.2 5.8,-0.6 8,-1.2 2.1,-0.6 3.2,-1.4 3.2,-2.3 0,-0.4 0,-0.8 -0.1,-1.4 -0.1,-0.5 -0.2,-1 -0.4,-1.4 l -7.2,-19.5 H 188 c -1.1,2.9 -2.1,5.4 -2.8,7.5 -0.7,2.1 -1.4,4.1 -1.9,5.9 -0.5,1.8 -0.9,3.2 -1.1,4.3 -0.2,1.1 -0.3,2 -0.3,2.7 0,1.6 1.3,2.9 3.9,3.8 2.6,0.9 5.5,1.4 8.7,1.6 v 4.4 h -32.8 v -4.4 c 1.1,-0.1 2.4,-0.3 4,-0.7 1.6,-0.4 2.9,-0.9 3.9,-1.6 1.6,-1.1 2.9,-2.3 3.8,-3.5 0.9,-1.2 1.8,-2.9 2.6,-5 4.4,-10.9 9.2,-23.2 14.5,-36.9 5.3,-13.6 10,-25.8 14.1,-36.4 h 4.9 l 29.1,75.2 c 0.6,1.6 1.3,2.9 2.1,3.9 0.8,1 1.9,1.9 3.3,2.9 0.9,0.6 2.2,1.1 3.7,1.4 1.5,0.4 2.8,0.6 3.8,0.6 v 4.5 z m -35.1,-35.6 -13.2,-33.8 -13,33.8 h 26.2 z"
         inkscape:connector-curvature="0"
         id="path51" /></g></g><g
     id="g53" /><g
     id="g55" /><g
     id="g57" /><g
     id="g59" /><g
     id="g61" /><g
     id="g63" /></svg>