<?xml version="1.0"?>
<svg version="1.1" xmlns="http://www.w3.org/2000/svg" xmlns:xlink="http://www.w3.org/1999/xlink" width="270" height="616">
    <desc iVinci="yes" version="4.5" gridStep="20" showGrid="no" snapToGrid="no" codePlatform="0"/>
    <g id="Layer1" opacity="1">
        <g id="Shape1">
            <desc shapeID="1" type="0" basicInfo-basicType="0" basicInfo-roundedRectRadius="12" basicInfo-polygonSides="6" basicInfo-starPoints="5" bounding="rect(-38.5933,-71.75,77.1865,143.5)" text="" font-familyName="" font-pixelSize="20" font-bold="0" font-underline="0" font-alignment="1" strokeStyle="0" markerStart="0" markerEnd="0" shadowEnabled="0" shadowOffsetX="0" shadowOffsetY="2" shadowBlur="4" shadowOpacity="160" blurEnabled="0" blurRadius="4" transform="matrix(1,0,0,1,191.007,152.35)" pers-center="0,0" pers-size="0,0" pers-start="0,0" pers-end="0,0" locked="0" mesh="" flag=""/>
            <path id="shapePath1" d="M198.5,224.1 C199.7,221.9 200.7,219.4 202.3,217.5 C213,204 215.2,188.4 206.7,177.1 C202.2,171 196.3,166 190.7,161 C187,157.8 182.6,155.6 178.4,153 C173.1,167.1 177.3,183.3 194.6,199.5 C189.4,196.4 183.6,193.9 179.1,189.9 C172.5,184 165.8,177.7 161,170.2 C154.8,160.7 156.8,150.3 162.8,141 C157.2,132.7 149.7,125.3 153.4,114.7 C157.2,120.2 161.3,126.2 165.6,131.9 C166.3,132.9 168.8,133.5 169.7,132.9 C180.5,125.1 191.4,117.6 201.6,109 C209.6,102.2 213.9,92.6 212.8,80.6 C218.6,87.6 219.9,96.4 215.2,104.7 C211.3,111.6 206.2,117.6 201.3,123.7 C195.8,130.5 190,137 184,144 C189.1,146.7 194.7,149.6 200.3,152.7 C206.1,155.8 211.9,158.9 217.5,162.4 C224.3,166.7 228.1,173.5 229.6,181.8 C229.6,182.5 229.6,183.3 229.6,184 C228,194.7 222.7,203 215.2,209.8 C209.7,214.6 204,219.3 198.5,224.1 Z" style="stroke:none;fill-rule:evenodd;fill:#000000;fill-opacity:1;"/>
        </g>
        <g id="Shape2">
            <desc shapeID="2" type="0" basicInfo-basicType="0" basicInfo-roundedRectRadius="12" basicInfo-polygonSides="6" basicInfo-starPoints="5" bounding="rect(-19.7,-19.5515,39.4,39.1031)" text="" font-familyName="" font-pixelSize="20" font-bold="0" font-underline="0" font-alignment="1" strokeStyle="0" markerStart="0" markerEnd="0" shadowEnabled="0" shadowOffsetX="0" shadowOffsetY="2" shadowBlur="4" shadowOpacity="160" blurEnabled="0" blurRadius="4" transform="matrix(1,0,0,1,58.1,197.051)" pers-center="0,0" pers-size="0,0" pers-start="0,0" pers-end="0,0" locked="0" mesh="" flag=""/>
            <path id="shapePath2" d="M38.5,181.6 C39.1,180.3 39.7,178.9 40.3,177.5 C51.8,201.5 59.4,207.6 77.8,215.3 C71.9,215.7 66.9,216.1 61.8,216.5 C48.2,217.6 43,209.8 39.5,197.6 C39.2,196.6 38.8,195.7 38.4,194.7 C38.5,190.3 38.5,185.9 38.5,181.6 Z" style="stroke:none;fill-rule:evenodd;fill:#000000;fill-opacity:1;"/>
        </g>
        <g id="Shape3">
            <desc shapeID="3" type="0" basicInfo-basicType="0" basicInfo-roundedRectRadius="12" basicInfo-polygonSides="6" basicInfo-starPoints="5" bounding="rect(-73.8953,-101.25,147.791,202.5)" text="" font-familyName="" font-pixelSize="20" font-bold="0" font-underline="0" font-alignment="1" strokeStyle="0" markerStart="0" markerEnd="0" shadowEnabled="0" shadowOffsetX="0" shadowOffsetY="2" shadowBlur="4" shadowOpacity="160" blurEnabled="0" blurRadius="4" transform="matrix(1,0,0,1,125.126,119.65)" pers-center="0,0" pers-size="0,0" pers-start="0,0" pers-end="0,0" locked="0" mesh="" flag=""/>
            <path id="shapePath3" d="M115.5,65 C124.6,70.1 126.4,79.9 121.5,99.9 C126.3,96.8 130.3,94.2 134.3,91.5 C151,79.8 167.3,67.6 181,51.8 C187.6,44.1 192.4,35.4 191.6,24.2 C191.5,22.3 191.1,20.3 190.8,18.4 C196.5,21.6 199.7,29.8 198.9,38.3 C197.5,55.4 188.3,67.6 177.4,78.6 C166.1,89.9 154.3,100.6 143.4,112.2 C131.8,124.6 124.7,139.4 126.4,157.9 C127.6,170.8 133.5,181 141.1,190.3 C144,193.8 147.3,196.9 149.9,200.6 C125.1,183.9 102.2,165.6 102.2,127.8 C98.7,131.5 95.1,135 91.9,138.9 C84.2,148 78.1,158.2 77.5,170.9 C76.7,187 84.6,198.7 95.2,208.6 C99.6,212.7 104.4,216.3 110,220.9 C92.8,213.5 76.8,206.6 63.8,193.9 C48.4,178.7 46.1,158.2 62.8,141.5 C73.1,131.3 84.3,122.2 94.9,112.2 C100.4,107 106,101.6 110.5,95.4 C117,86.8 119.5,76.5 115.5,65 Z" style="stroke:none;fill-rule:evenodd;fill:#000000;fill-opacity:1;"/>
        </g>
        <g id="Shape4">
            <desc shapeID="4" type="0" basicInfo-basicType="0" basicInfo-roundedRectRadius="12" basicInfo-polygonSides="6" basicInfo-starPoints="5" bounding="rect(-11.6391,-10.28,23.2781,20.5601)" text="" font-familyName="" font-pixelSize="20" font-bold="0" font-underline="0" font-alignment="1" strokeStyle="0" markerStart="0" markerEnd="0" shadowEnabled="0" shadowOffsetX="0" shadowOffsetY="2" shadowBlur="4" shadowOpacity="160" blurEnabled="0" blurRadius="4" transform="matrix(1,0,0,1,139.939,66.3984)" pers-center="0,0" pers-size="0,0" pers-start="0,0" pers-end="0,0" locked="0" mesh="" flag=""/>
            <path id="shapePath4" d="M128.3,69.5 C128.7,62.3 132.1,59.4 136.4,57.4 C141,55.3 145.6,55.7 149.5,59.2 C152.8,62.2 152,69 148.3,72.8 C144.1,77.1 135.8,78.1 131.3,74.4 C129.7,73.1 128.9,70.5 128.3,69.5 Z" style="stroke:none;fill-rule:evenodd;fill:#000000;fill-opacity:1;"/>
        </g>
        <g id="Shape5">
            <desc shapeID="5" type="0" basicInfo-basicType="0" basicInfo-roundedRectRadius="12" basicInfo-polygonSides="6" basicInfo-starPoints="5" bounding="rect(-9.90077,-8.25527,19.8015,16.5105)" text="" font-familyName="" font-pixelSize="20" font-bold="0" font-underline="0" font-alignment="1" strokeStyle="0" markerStart="0" markerEnd="0" shadowEnabled="0" shadowOffsetX="0" shadowOffsetY="2" shadowBlur="4" shadowOpacity="160" blurEnabled="0" blurRadius="4" transform="matrix(1,0,0,1,174.501,114.446)" pers-center="0,0" pers-size="0,0" pers-start="0,0" pers-end="0,0" locked="0" mesh="" flag=""/>
            <path id="shapePath5" d="M175.9,106.2 C181.7,106.3 184.3,108.3 184.4,112.8 C184.5,118.4 179.7,122.8 173.5,122.7 C168.2,122.6 164.6,119.4 164.6,114.7 C164.6,109.2 168.9,106 175.9,106.2 Z" style="stroke:none;fill-rule:evenodd;fill:#000000;fill-opacity:1;"/>
        </g>
        <g id="Shape6">
            <desc shapeID="6" type="0" basicInfo-basicType="0" basicInfo-roundedRectRadius="12" basicInfo-polygonSides="6" basicInfo-starPoints="5" bounding="rect(-94.492,-74,188.984,148)" text="" font-familyName="" font-pixelSize="20" font-bold="0" font-underline="0" font-alignment="1" strokeStyle="0" markerStart="0" markerEnd="0" shadowEnabled="0" shadowOffsetX="0" shadowOffsetY="2" shadowBlur="4" shadowOpacity="160" blurEnabled="0" blurRadius="4" transform="matrix(1,0,0,1,130.534,299)" pers-center="0,0" pers-size="0,0" pers-start="0,0" pers-end="0,0" locked="0" mesh="" flag=""/>
            <path id="shapePath6" d="M48,233 C48,240.1 48.4,241.7 51,246.3 C52.7,249.3 54,252.1 54,252.6 C54,253.1 52,254.6 49.6,255.8 C45.1,258.2 40,264.3 37.5,270.4 C35.4,275.3 35.6,285.6 37.9,290.6 C43.6,303.2 60.5,307.5 71.1,299 C73.1,297.4 75,296.4 75.4,296.7 C75.7,297.1 76,314.4 76,335.2 L76,373 L84.5,373 L93,373 L93,350.7 C93,332.2 93.3,328.1 94.6,326.2 C96.4,323.7 100.6,323.3 103.6,325.4 C105.4,326.7 105.5,328.4 105.8,349.9 L106.1,373 L114.6,373 L123,373 L123,349.6 L123.7,326.9 L124.9,324 C127,321.2 137.5,320.1 140.5,326 C141.7,328.3 142,333.2 142,351 L142,373 L150.5,373 L159,373 L159,350.9 C159,337.6 159.4,328.1 160,326.9 C161.4,324.4 168.5,324.2 169.4,326.6 C169.7,327.5 170,338.3 170,350.6 L170,373 L178.5,373 L187,373 L187,335.5 C187,314.9 187.3,298 187.6,298 C187.9,298 189.4,298.9 190.9,300 C195.3,303 202.1,304.2 208.1,302.9 C212.2,302 214.3,300.8 218.1,297 C225,290.1 226.7,282 223.4,271.1 C221.9,265.9 215.8,258.4 210.1,254.9 L207.6,253.4 L211.3,247.3 C214.8,241.6 215,240.7 215,233.1 L215,225 L131.5,225 L48,225 L48,233 M202.2,261 C216.6,265 221.4,285.9 209.7,293 C200.8,298.5 190,291.9 190,281.1 C190,275.3 195.2,271.6 200.5,273.6 C202.3,274.3 205.5,279.9 204.6,280.8 C204.2,281.1 201.7,281.5 198.9,281.6 C196.1,281.7 193.6,282.1 193.3,282.3 C192.3,283.4 196.2,289.1 198.6,290 C203.3,291.8 207,291.2 210.1,288.1 C215.4,282.8 213.3,272.3 205.9,267.2 C203,265.2 201.5,264.9 196.3,265.2 C191,265.5 189.5,266.1 186.9,268.5 C183.2,272 181,276.7 181,281 L181,284 L130.6,284 L80.3,284 L79.6,279.1 C79.1,275.4 78,273.2 75.2,270 C71.7,266.1 70.9,265.7 65.7,265.2 C62.3,264.9 58.8,265.3 57,266 C50.1,268.9 45.8,278.1 48.4,284.3 C51.5,291.8 58.9,293.3 64.6,287.6 C66.5,285.7 68,283.8 68,283.2 C68,282 61.2,280.9 58.3,281.6 C56.4,282.1 56,281.8 56,280.1 C56,277.1 60.4,273 63.5,273 C67.1,273 71,277.2 71,281.1 C71,296.2 51.9,300.2 45.8,286.3 C44,282.1 43.9,281.1 45,276.2 C46.5,269.6 51.5,263.6 57.5,261.5 C60.8,260.3 73.6,260.1 130,260 C174.2,260 199.8,260.4 202.2,261 Z" style="stroke:none;fill-rule:evenodd;fill:#010101;fill-opacity:1;"/>
        </g>
        <g id="Shape7">
            <desc shapeID="7" type="0" basicInfo-basicType="0" basicInfo-roundedRectRadius="12" basicInfo-polygonSides="6" basicInfo-starPoints="5" bounding="rect(-78.7842,-18.7028,157.568,37.4057)" text="" font-familyName="" font-pixelSize="20" font-bold="0" font-underline="0" font-alignment="1" strokeStyle="0" markerStart="0" markerEnd="0" shadowEnabled="0" shadowOffsetX="0" shadowOffsetY="2" shadowBlur="4" shadowOpacity="160" blurEnabled="0" blurRadius="4" transform="matrix(1,0,0,1,135.384,396.897)" pers-center="0,0" pers-size="0,0" pers-start="0,0" pers-end="0,0" locked="0" mesh="" flag=""/>
            <path id="shapePath7" d="M57.7,382.6 L58,387.3 L127,387.6 C203.6,387.8 198.1,387.3 200.2,393.7 C201.4,397.4 200.1,402.1 197.3,404.8 C195.5,406.5 193.6,406.6 126.1,406.6 L56.6,406.6 L56.6,411.1 L56.6,415.6 L129.4,415.6 L202.2,415.6 L205.5,413.3 C210.9,409.6 213.8,404.7 214.1,398.3 C214.5,392 213.2,388.6 208.6,383.7 C203.2,377.8 208,378.2 129.2,378.2 L57.4,378.2 L57.7,382.6 Z" style="stroke:none;fill-rule:evenodd;fill:#010101;fill-opacity:1;"/>
        </g>
        <g id="Shape8">
            <desc shapeID="8" type="0" basicInfo-basicType="0" basicInfo-roundedRectRadius="12" basicInfo-polygonSides="6" basicInfo-starPoints="5" bounding="rect(-62.8,-0.899993,125.6,1.80002)" text="" font-familyName="" font-pixelSize="20" font-bold="0" font-underline="0" font-alignment="1" strokeStyle="0" markerStart="0" markerEnd="0" shadowEnabled="0" shadowOffsetX="0" shadowOffsetY="2" shadowBlur="4" shadowOpacity="160" blurEnabled="0" blurRadius="4" transform="matrix(1,0,0,1,128.3,392.3)" pers-center="0,0" pers-size="0,0" pers-start="0,0" pers-end="0,0" locked="0" mesh="" flag=""/>
            <path id="shapePath8" d="M65.5,392.3 C65.5,392.9 87.1,393.2 128.3,393.2 C169.5,393.2 191.1,392.9 191.1,392.3 C191.1,391.7 169.5,391.4 128.3,391.4 C87.1,391.4 65.5,391.6 65.5,392.3 Z" style="stroke:none;fill-rule:evenodd;fill:#010101;fill-opacity:1;"/>
        </g>
        <g id="Shape9">
            <desc shapeID="9" type="0" basicInfo-basicType="0" basicInfo-roundedRectRadius="12" basicInfo-polygonSides="6" basicInfo-starPoints="5" bounding="rect(-62.8,-1.30002,125.6,2.60001)" text="" font-familyName="" font-pixelSize="20" font-bold="0" font-underline="0" font-alignment="1" strokeStyle="0" markerStart="0" markerEnd="0" shadowEnabled="0" shadowOffsetX="0" shadowOffsetY="2" shadowBlur="4" shadowOpacity="160" blurEnabled="0" blurRadius="4" transform="matrix(1,0,0,1,128.3,397.2)" pers-center="0,0" pers-size="0,0" pers-start="0,0" pers-end="0,0" locked="0" mesh="" flag=""/>
            <path id="shapePath9" d="M65.5,397.2 C65.5,398.4 73.1,398.5 128.3,398.5 C183.5,398.5 191.1,398.3 191.1,397.2 C191.1,396 183.5,395.9 128.3,395.9 C73.1,395.9 65.5,396 65.5,397.2 Z" style="stroke:none;fill-rule:evenodd;fill:#010101;fill-opacity:1;"/>
        </g>
        <g id="Shape10">
            <desc shapeID="10" type="0" basicInfo-basicType="0" basicInfo-roundedRectRadius="12" basicInfo-polygonSides="6" basicInfo-starPoints="5" bounding="rect(-62.7525,-1.28378,125.505,2.56756)" text="" font-familyName="" font-pixelSize="20" font-bold="0" font-underline="0" font-alignment="1" strokeStyle="0" markerStart="0" markerEnd="0" shadowEnabled="0" shadowOffsetX="0" shadowOffsetY="2" shadowBlur="4" shadowOpacity="160" blurEnabled="0" blurRadius="4" transform="matrix(1,0,0,1,128.447,402.384)" pers-center="0,0" pers-size="0,0" pers-start="0,0" pers-end="0,0" locked="0" mesh="" flag=""/>
            <path id="shapePath10" d="M65.7,402.2 C66.1,403.1 79.6,403.4 128.6,403.6 C183.9,403.8 191.2,403.6 191.2,402.4 C191.2,401.2 183.7,401.1 128.3,401.1 C78.4,401.2 65.4,401.4 65.7,402.2 Z" style="stroke:none;fill-rule:evenodd;fill:#010101;fill-opacity:1;"/>
        </g>
        <g id="Shape11">
            <desc shapeID="11" type="0" basicInfo-basicType="0" basicInfo-roundedRectRadius="12" basicInfo-polygonSides="6" basicInfo-starPoints="5" bounding="rect(-88.4451,-21.0023,176.891,42.0047)" text="" font-familyName="" font-pixelSize="20" font-bold="0" font-underline="0" font-alignment="1" strokeStyle="0" markerStart="0" markerEnd="0" shadowEnabled="0" shadowOffsetX="0" shadowOffsetY="2" shadowBlur="4" shadowOpacity="160" blurEnabled="0" blurRadius="4" transform="matrix(1,0,0,1,135.445,440.998)" pers-center="0,0" pers-size="0,0" pers-start="0,0" pers-end="0,0" locked="0" mesh="" flag=""/>
            <path id="shapePath11" d="M48.2,425.2 L48.5,430.5 L125.9,430.8 C211.8,431 205.7,430.5 208,437.6 C209.4,441.7 207.9,447 204.7,450 C202.7,451.9 200.6,452 124.8,452 L47,452 L47,457 L47,462 L128.7,462 L210.4,462 L214.1,459.4 C220.2,455.2 223.4,449.8 223.8,442.6 C224.3,435.5 222.8,431.7 217.6,426.2 C211.5,419.6 216.9,420 128.5,420 L47.9,420 L48.2,425.2 Z" style="stroke:none;fill-rule:evenodd;fill:#010101;fill-opacity:1;"/>
        </g>
        <g id="Shape12">
            <desc shapeID="12" type="0" basicInfo-basicType="0" basicInfo-roundedRectRadius="12" basicInfo-polygonSides="6" basicInfo-starPoints="5" bounding="rect(-70.5,-1,141,2)" text="" font-familyName="" font-pixelSize="20" font-bold="0" font-underline="0" font-alignment="1" strokeStyle="0" markerStart="0" markerEnd="0" shadowEnabled="0" shadowOffsetX="0" shadowOffsetY="2" shadowBlur="4" shadowOpacity="160" blurEnabled="0" blurRadius="4" transform="matrix(1,0,0,1,127.5,436)" pers-center="0,0" pers-size="0,0" pers-start="0,0" pers-end="0,0" locked="0" mesh="" flag=""/>
            <path id="shapePath12" d="M57,436 C57,436.7 81.2,437 127.5,437 C173.8,437 198,436.7 198,436 C198,435.3 173.8,435 127.5,435 C81.2,435 57,435.3 57,436 Z" style="stroke:none;fill-rule:evenodd;fill:#010101;fill-opacity:1;"/>
        </g>
        <g id="Shape13">
            <desc shapeID="13" type="0" basicInfo-basicType="0" basicInfo-roundedRectRadius="12" basicInfo-polygonSides="6" basicInfo-starPoints="5" bounding="rect(-70.5,-1.5,141,3)" text="" font-familyName="" font-pixelSize="20" font-bold="0" font-underline="0" font-alignment="1" strokeStyle="0" markerStart="0" markerEnd="0" shadowEnabled="0" shadowOffsetX="0" shadowOffsetY="2" shadowBlur="4" shadowOpacity="160" blurEnabled="0" blurRadius="4" transform="matrix(1,0,0,1,127.5,441.5)" pers-center="0,0" pers-size="0,0" pers-start="0,0" pers-end="0,0" locked="0" mesh="" flag=""/>
            <path id="shapePath13" d="M57,441.5 C57,442.8 65.5,443 127.5,443 C189.5,443 198,442.8 198,441.5 C198,440.2 189.5,440 127.5,440 C65.5,440 57,440.2 57,441.5 Z" style="stroke:none;fill-rule:evenodd;fill:#010101;fill-opacity:1;"/>
        </g>
        <g id="Shape14">
            <desc shapeID="14" type="0" basicInfo-basicType="0" basicInfo-roundedRectRadius="12" basicInfo-polygonSides="6" basicInfo-starPoints="5" bounding="rect(-70.4021,-1.43329,140.805,2.86659)" text="" font-familyName="" font-pixelSize="20" font-bold="0" font-underline="0" font-alignment="1" strokeStyle="0" markerStart="0" markerEnd="0" shadowEnabled="0" shadowOffsetX="0" shadowOffsetY="2" shadowBlur="4" shadowOpacity="160" blurEnabled="0" blurRadius="4" transform="matrix(1,0,0,1,127.598,447.433)" pers-center="0,0" pers-size="0,0" pers-start="0,0" pers-end="0,0" locked="0" mesh="" flag=""/>
            <path id="shapePath14" d="M57.2,447.2 C57.6,448.2 72.8,448.6 127.8,448.8 C189.8,449 198,448.8 198,447.5 C198,446.2 189.6,446 127.4,446 C71.4,446 56.9,446.3 57.2,447.2 Z" style="stroke:none;fill-rule:evenodd;fill:#010101;fill-opacity:1;"/>
        </g>
        <g id="Shape15">
            <desc shapeID="15" type="0" basicInfo-basicType="0" basicInfo-roundedRectRadius="12" basicInfo-polygonSides="6" basicInfo-starPoints="5" bounding="rect(-34.25,-43.6,68.5,87.2)" text="" font-familyName="" font-pixelSize="20" font-bold="0" font-underline="0" font-alignment="1" strokeStyle="0" markerStart="0" markerEnd="0" shadowEnabled="0" shadowOffsetX="0" shadowOffsetY="2" shadowBlur="4" shadowOpacity="160" blurEnabled="0" blurRadius="4" transform="matrix(1,0,0,1,64.85,543)" pers-center="0,0" pers-size="0,0" pers-start="0,0" pers-end="0,0" locked="0" mesh="" flag=""/>
            <path id="shapePath15" d="M99.1,521.2 L94.5,521.2 C93.6,518 91.8,514.5 89.1,510.8 C86.4,507.1 83.8,505.1 81.3,504.7 C80,504.5 78.5,504.4 76.8,504.3 C75.1,504.2 73.1,504.2 70.9,504.2 L56.2,504.2 L56.2,539.2 L66.2,539.2 C69.2,539.2 71.6,538.9 73.3,538.2 C75,537.6 76.4,536.6 77.6,535.3 C78.4,534.4 79.2,533 79.8,531.1 C80.4,529.2 80.9,527.2 81.1,525 L85.7,525 L85.7,559.3 L81.1,559.3 C81,557.5 80.6,555.5 79.8,553.2 C79,550.9 78.3,549.2 77.5,548.2 C76.3,546.7 74.7,545.7 72.9,545.1 C71,544.5 68.8,544.3 66.2,544.3 L56.2,544.3 L56.2,574.3 C56.2,575.6 56.5,576.9 57,577.9 C57.5,578.9 58.5,579.8 59.8,580.5 C60.4,580.8 61.7,581.1 63.8,581.5 C65.8,581.9 67.4,582.1 68.5,582.2 L68.5,586.6 L30.7,586.6 L30.7,582.2 C31.9,582.1 33.6,582 35.6,581.8 C37.6,581.6 39,581.4 39.6,581.1 C40.8,580.6 41.7,579.8 42.3,578.7 C42.9,577.7 43.1,576.4 43.1,574.9 L43.1,512 C43.1,510.6 42.9,509.5 42.4,508.4 C41.9,507.4 41,506.5 39.6,505.9 C38.5,505.4 37,504.9 35.1,504.5 C33.2,504.1 31.8,503.8 30.6,503.8 L30.6,499.4 L99,499.4 L99,521.2 L99.1,521.2 Z" style="stroke:none;fill-rule:evenodd;fill:#000000;fill-opacity:1;"/>
        </g>
        <g id="Shape16">
            <desc shapeID="16" type="0" basicInfo-basicType="0" basicInfo-roundedRectRadius="12" basicInfo-polygonSides="6" basicInfo-starPoints="5" bounding="rect(-34.25,-43.6,68.5,87.2)" text="" font-familyName="" font-pixelSize="20" font-bold="0" font-underline="0" font-alignment="1" strokeStyle="0" markerStart="0" markerEnd="0" shadowEnabled="0" shadowOffsetX="0" shadowOffsetY="2" shadowBlur="4" shadowOpacity="160" blurEnabled="0" blurRadius="4" transform="matrix(1,0,0,1,139.65,543)" pers-center="0,0" pers-size="0,0" pers-start="0,0" pers-end="0,0" locked="0" mesh="" flag=""/>
            <path id="shapePath16" d="M173.9,521.2 L169.3,521.2 C168.4,518 166.6,514.5 163.9,510.8 C161.2,507.1 158.6,505.1 156.1,504.7 C154.8,504.5 153.3,504.4 151.6,504.3 C149.9,504.2 147.9,504.2 145.7,504.2 L131,504.2 L131,539.2 L141,539.2 C144,539.2 146.4,538.9 148.1,538.2 C149.8,537.6 151.2,536.6 152.4,535.3 C153.2,534.4 154,533 154.6,531.1 C155.2,529.2 155.7,527.2 155.9,525 L160.5,525 L160.5,559.3 L156,559.3 C155.9,557.5 155.5,555.5 154.7,553.2 C154,550.9 153.2,549.2 152.4,548.2 C151.2,546.7 149.6,545.7 147.7,545.1 C145.8,544.5 143.6,544.3 141,544.3 L131,544.3 L131,574.3 C131,575.6 131.3,576.9 131.8,577.9 C132.3,579 133.3,579.8 134.6,580.5 C135.2,580.8 136.5,581.1 138.6,581.5 C140.6,581.9 142.2,582.1 143.3,582.2 L143.3,586.6 L105.5,586.6 L105.5,582.2 C106.7,582.1 108.4,582 110.4,581.8 C112.4,581.6 113.8,581.4 114.4,581.1 C115.6,580.6 116.5,579.8 117.1,578.7 C117.7,577.7 117.9,576.4 117.9,574.9 L117.9,512 C117.9,510.6 117.7,509.5 117.2,508.4 C116.7,507.4 115.8,506.5 114.4,505.9 C113.3,505.4 111.8,504.9 109.9,504.5 C108,504.1 106.6,503.8 105.4,503.8 L105.4,499.4 L173.8,499.4 L173.8,521.2 L173.9,521.2 Z" style="stroke:none;fill-rule:evenodd;fill:#000000;fill-opacity:1;"/>
        </g>
        <g id="Shape17">
            <desc shapeID="17" type="0" basicInfo-basicType="0" basicInfo-roundedRectRadius="12" basicInfo-polygonSides="6" basicInfo-starPoints="5" bounding="rect(-44.9,-44.25,89.8,88.5)" text="" font-familyName="" font-pixelSize="20" font-bold="0" font-underline="0" font-alignment="1" strokeStyle="0" markerStart="0" markerEnd="0" shadowEnabled="0" shadowOffsetX="0" shadowOffsetY="2" shadowBlur="4" shadowOpacity="160" blurEnabled="0" blurRadius="4" transform="matrix(1,0,0,1,206.6,542.25)" pers-center="0,0" pers-size="0,0" pers-start="0,0" pers-end="0,0" locked="0" mesh="" flag=""/>
            <path id="shapePath17" d="M251.4,586.5 L215.2,586.5 L215.2,582.1 C218.4,581.9 221,581.5 223.2,580.9 C225.3,580.3 226.4,579.5 226.4,578.6 C226.4,578.2 226.4,577.8 226.3,577.2 C226.2,576.7 226.1,576.2 225.9,575.8 L218.7,556.3 L188,556.3 C186.9,559.2 185.9,561.7 185.2,563.8 C184.5,565.9 183.8,567.9 183.3,569.7 C182.8,571.5 182.4,572.9 182.2,574 C182,575.1 181.9,576 181.9,576.7 C181.9,578.3 183.2,579.6 185.8,580.5 C188.4,581.4 191.3,581.9 194.5,582.1 L194.5,586.5 L161.7,586.5 L161.7,582.1 C162.8,582 164.1,581.8 165.7,581.4 C167.3,581 168.6,580.5 169.6,579.8 C171.2,578.7 172.5,577.5 173.4,576.3 C174.3,575.1 175.2,573.4 176,571.3 C180.4,560.4 185.2,548.1 190.5,534.4 C195.8,520.8 200.5,508.6 204.6,498 L209.5,498 L238.6,573.2 C239.2,574.8 239.9,576.1 240.7,577.1 C241.5,578.1 242.6,579 244,580 C244.9,580.6 246.2,581.1 247.7,581.4 C249.2,581.8 250.5,582 251.5,582 L251.5,586.5 L251.4,586.5 M216.3,550.9 L203.1,517.1 L190.1,550.9 L216.3,550.9 Z" style="stroke:none;fill-rule:evenodd;fill:#000000;fill-opacity:1;"/>
        </g>
    </g>
</svg>
