<?xml version="1.0" encoding="utf-8"?>
<!-- Generator: Adobe Illustrator 16.0.0, SVG Export Plug-In . SVG Version: 6.00 Build 0)  -->
<!DOCTYPE svg PUBLIC "-//W3C//DTD SVG 1.1//EN" "http://www.w3.org/Graphics/SVG/1.1/DTD/svg11.dtd" [
	<!ENTITY ns_extend "http://ns.adobe.com/Extensibility/1.0/">
	<!ENTITY ns_ai "http://ns.adobe.com/AdobeIllustrator/10.0/">
	<!ENTITY ns_graphs "http://ns.adobe.com/Graphs/1.0/">
	<!ENTITY ns_vars "http://ns.adobe.com/Variables/1.0/">
	<!ENTITY ns_imrep "http://ns.adobe.com/ImageReplacement/1.0/">
	<!ENTITY ns_sfw "http://ns.adobe.com/SaveForWeb/1.0/">
	<!ENTITY ns_custom "http://ns.adobe.com/GenericCustomNamespace/1.0/">
	<!ENTITY ns_adobe_xpath "http://ns.adobe.com/XPath/1.0/">
]>
<svg version="1.1" id="Layer_1" xmlns:x="&ns_extend;" xmlns:i="&ns_ai;" xmlns:graph="&ns_graphs;"
	 xmlns="http://www.w3.org/2000/svg" xmlns:xlink="http://www.w3.org/1999/xlink" x="0px" y="0px" width="441.322px"
	 height="28.099px" viewBox="0 0 441.322 28.099" style="enable-background:new 0 0 441.322 28.099;" xml:space="preserve">
<metadata>
	<sfw  xmlns="&ns_sfw;">
		<slices></slices>
		<sliceSourceBounds  width="428.359" height="14.143" bottomLeftOrigin="true" x="91.821" y="-402.599"></sliceSourceBounds>
	</sfw>
</metadata>
<g>
	<path style="fill:#4D4D4F;" d="M263.744,18.763c2.885,0,5.223-1.973,5.283-4.424h2.025c3.27,0,9.615,4.424,9.615,4.424
		c6.469-3.426,34.215-4.592,34.793-4.615h118.953c0.477,0,0.865-0.389,0.865-0.865c0-0.479-0.389-0.865-0.865-0.865H315.666v-0.002
		c-23.461-0.385-36.152-3.076-36.152-3.076c-2.518,3.189-7.959,3.887-10.584,4.014c-0.484-2.07-2.621-3.629-5.186-3.629
		c-2.92,0-5.287,2.023-5.287,4.52S260.824,18.763,263.744,18.763z M280.859,10.494c0,0,11.924,2.691,21.924,2.885
		c0,0-15.385,0.77-21.346,3.652c0,0-4.232-2.691-5.963-3.268C275.474,13.763,279.707,11.839,280.859,10.494z M264.039,11.072
		c1.59,0,2.879,1.334,2.879,2.979c0,1.646-1.289,2.98-2.879,2.98s-2.879-1.334-2.879-2.98
		C261.16,12.406,262.449,11.072,264.039,11.072z"/>
	<path style="fill:#4D4D4F;" d="M7.783,14.148h118.959c0.576,0.023,28.322,1.189,34.793,4.615c0,0,6.346-4.424,9.615-4.424h2.023
		c0.062,2.451,2.402,4.424,5.283,4.424c2.922,0,5.29-2.023,5.29-4.52s-2.368-4.52-5.29-4.52c-2.564,0-4.701,1.559-5.186,3.629
		c-2.623-0.127-8.066-0.824-10.582-4.014c0,0-12.691,2.691-36.154,3.076v0.002H7.783c-0.477,0-0.863,0.387-0.863,0.865
		C6.92,13.759,7.307,14.148,7.783,14.148z M178.164,11.072c1.59,0,2.879,1.334,2.879,2.979c0,1.646-1.289,2.98-2.879,2.98
		s-2.879-1.334-2.879-2.98C175.285,12.406,176.574,11.072,178.164,11.072z M161.342,10.494c1.154,1.346,5.387,3.27,5.387,3.27
		c-1.73,0.576-5.963,3.268-5.963,3.268c-5.961-2.883-21.346-3.652-21.346-3.652C149.418,13.185,161.342,10.494,161.342,10.494z"/>
	<path style="fill:#4D4D4F;" d="M241.595,15.087c-3.855-2.85-11.521-0.932-17.658,1.752c-6.153,2.693-11.922,4.615-11.922,4.615
		c3.463,1.154,11.43-3.35,19.616-5.77C238.767,13.576,241.292,14.904,241.595,15.087z"/>
	<path style="fill:#4D4D4F;" d="M199.901,13.714c1.01,1.01,4.287,2.08,10.961-0.143c5.191-1.73,12.692-4.76,12.692-4.76
		c-5.625-0.576-7.067,1.873-14.424,4.182C202.489,15.078,199.901,13.714,199.901,13.714z"/>
	<path style="fill:#4D4D4F;" d="M196.231,21.501c7.602,0.553,14.043-2.189,20.271-4.84l2.695-1.143
		c6.483-2.76,15.364-6.539,23.51-6.275c7.441,0.238,11.709,2.188,11.709,5.336c0,2.76-2.643,4.361-7.854,4.764
		c-5.236,0.402-9.779-2.701-9.824-2.73c-0.393-0.275-0.932-0.178-1.203,0.215c-0.273,0.391-0.178,0.93,0.215,1.203
		c0.203,0.143,5.08,3.488,10.945,3.039c7.812-0.604,9.451-3.861,9.451-6.49c0-2.477-1.738-6.689-13.385-7.066
		c-8.527-0.275-17.193,3.043-23.825,5.865l-2.693,1.145c-6.041,2.568-12.704,5.773-19.887,5.252
		c-8.493-0.617-9.582-3.33-9.582-5.627c0-0.662,0.254-1.232,0.776-1.738c1.396-1.354,4.569-2.125,8.282-2.012
		c4.51,0.137,7.877,1.432,7.92,1.451c0.43,0.209,0.948,0.027,1.157-0.402c0.207-0.43,0.027-0.945-0.403-1.154
		c-0.191-0.092-3.732-1.477-8.621-1.625c-4.229-0.129-7.795,0.807-9.54,2.498c-0.865,0.84-1.303,1.842-1.303,2.982
		C185.045,18.609,188.6,20.947,196.231,21.501z"/>
</g>
</svg>
