<?xml version="1.0" encoding="iso-8859-1"?>
<!-- Generator: Adobe Illustrator 16.0.0, SVG Export Plug-In . SVG Version: 6.00 Build 0)  -->
<!DOCTYPE svg PUBLIC "-//W3C//DTD SVG 1.1//EN" "http://www.w3.org/Graphics/SVG/1.1/DTD/svg11.dtd" [
	<!ENTITY ns_extend "http://ns.adobe.com/Extensibility/1.0/">
	<!ENTITY ns_ai "http://ns.adobe.com/AdobeIllustrator/10.0/">
	<!ENTITY ns_graphs "http://ns.adobe.com/Graphs/1.0/">
	<!ENTITY ns_vars "http://ns.adobe.com/Variables/1.0/">
	<!ENTITY ns_imrep "http://ns.adobe.com/ImageReplacement/1.0/">
	<!ENTITY ns_sfw "http://ns.adobe.com/SaveForWeb/1.0/">
	<!ENTITY ns_custom "http://ns.adobe.com/GenericCustomNamespace/1.0/">
	<!ENTITY ns_adobe_xpath "http://ns.adobe.com/XPath/1.0/">
]>
<svg version="1.1"
	 id="svg2" xmlns:x="&ns_extend;" xmlns:i="&ns_ai;" xmlns:graph="&ns_graphs;" inkscape:version="0.48.2 r9819" sodipodi:docname="Wineskin.svg" xmlns:sodipodi="http://sodipodi.sourceforge.net/DTD/sodipodi-0.dtd" xmlns:inkscape="http://www.inkscape.org/namespaces/inkscape" xmlns:svg="http://www.w3.org/2000/svg" xmlns:dc="http://purl.org/dc/elements/1.1/" xmlns:rdf="http://www.w3.org/1999/02/22-rdf-syntax-ns#" xmlns:cc="http://creativecommons.org/ns#"
	 xmlns="http://www.w3.org/2000/svg" xmlns:xlink="http://www.w3.org/1999/xlink" x="0px" y="0px" width="33.1px" height="34.2px"
	 viewBox="-1.1 -1.1 33.1 34.2" enable-background="new -1.1 -1.1 33.1 34.2" xml:space="preserve">
<metadata  id="metadata22">
	<rdf:RDF>
		<cc:Work  rdf:about="">
			<dc:format>image/svg+xml</dc:format>
			<dc:type  rdf:resource="http://purl.org/dc/dcmitype/StillImage"></dc:type>
		</cc:Work>
	</rdf:RDF>
	<sfw  xmlns="&ns_sfw;">
		<slices></slices>
		<sliceSourceBounds  width="31.2" height="32" bottomLeftOrigin="true" x="289.5" y="380.5"></sliceSourceBounds>
	</sfw>
</metadata>
<sodipodi:namedview  inkscape:pageshadow="2" inkscape:pageopacity="0" inkscape:window-maximized="0" inkscape:current-layer="svg2" inkscape:window-width="786" inkscape:window-y="0" inkscape:window-x="643" inkscape:window-height="729" bordercolor="#666666" borderopacity="1" inkscape:zoom="11.8" guidetolerance="10" inkscape:cx="13.220339" gridtolerance="10" showgrid="false" objecttolerance="10" inkscape:cy="20" pagecolor="#ffffff" id="namedview18">
	</sodipodi:namedview>
<path id="path6" fill="#1D4583" d="M16.4,0h1.5c1.9,0.4,3.7,0.8,5.5,1.4c-4.1,0.2-8.6,1.3-11.6,4.4c-5.2,5.8-7.5,13.8-6.1,21.4
	c-1.4-0.4-2.8-0.6-4.2-0.9c-0.5-1-1.1-2-1.6-3v-6.8c1.1,1.2,2,2.6,2.8,4c1-5.5,4-10.4,6.8-15.1c-4.1,2.7-6,7.2-8.2,11.4
	c-0.6-2.6,1.1-5,2.5-7.1C7.3,5.8,11.1,1.5,16.4,0z"/>
<path id="path8" fill="#2B3632" d="M17.9,0h5.6c3.6,2.2,7.8,5.4,7.6,10c0.7,6.1-3,11.8-7.3,15.8c-2.4,2.6-5.2,4.7-8.5,6.2h-8
	c-2.3-1.5-4.5-3.2-5.8-5.7c1.4,0.3,2.8,0.6,4.2,0.9c2.6,1.8,5.6,4.2,9,2.8c7.1-2.7,11.8-9.9,12.9-17.2c0.4-4.1,0.5-9.9-4.2-11.4
	C21.6,0.8,19.8,0.4,17.9,0z"/>
<path id="path12" fill="#FFFFFF" d="M23.4,1.4c4.8,1.5,4.7,7.4,4.2,11.4c-1.1,7.3-5.8,14.5-12.9,17.2c-3.4,1.4-6.4-1-9-2.8
	c-1.4-7.6,0.9-15.7,6.1-21.4C14.8,2.7,19.3,1.6,23.4,1.4z"/>
<path id="path14" fill="#1D4583" d="M10.7,12.8c3.5-4.1,10.5-5.1,14-0.5c-0.5,3.9-2,7.4-3.5,11c-1.5,0.1-3,0.1-4.5,0.2
	c1-1.3,2-2.7,3-4c-1.5-0.5-3-1-4.4-1.5c0.8-1.3,1.6-2.7,2.4-4c-0.1-0.5-0.4-1.4-0.5-1.8c-1.7,0.3-3.4,0.5-5.1,0.8
	c1.3,2.8,2.8,5.5,3.7,8.5c-0.9,0-2.6,0-3.5,0c1.3,2.2,3.3,3.9,5.8,4.7c-5.2,0.4-8.5-4.3-9.3-8.9c0.5,0,1.5,0,2,0
	C10.1,15.9,9.2,14,10.7,12.8z"/>
</svg>
