<?xml version="1.0" encoding="UTF-8"?>
<svg viewBox="0 0 290.66064 143.01981" xmlns="http://www.w3.org/2000/svg">
 <g transform="matrix(.59524 0 0 .59524 -833.56 -247.04)" fill-rule="evenodd">
  <path d="m1606.1 419.31c-25.344 2.5285-48.524 14.645-73.114 20.788-14.416 3.9014-29.384 6.9491-44.417 5.6186-28.023 54.128-57.169 107.9-82.627 163.18-0.1693 1.7354-3.8877 5.9552-0.2164 5.5114 32.163 1.4565 64.335-1.9685 96.453-3.4389 37.988-1.8486 75.988-5.684 114.05-4.6861 3.4068 0.13155 8.8524 0.71546 8.0937 4.9062 8.5953 4.8634 19.415 3.7398 29.031 3.1875 4.5162-0.8893 11.021-0.86668 13.688-5.0312-1.3267-4.7569 6.3841-2.8392 9.4061-3.2656 66.447 1.1819 132.87 5.7325 199.34 4.3281 3.487-0.39502 8.067-0.031 11-1.3125-11.126-22.272-26.3-42.31-39.979-63.081-22.745-32.954-45.754-65.979-69.365-98.231-42.716-1.1013-81.786-21.719-123.59-27.553-9.8159-1.1832-23.204-1.3187-27.725 9.41-1.7672 3.1479-2.7502-4.2351-5.0318-5.6386-3.7941-4.0874-9.6762-4.9115-15-4.6875z" fill="#fff"/>
  <path d="m1606 419.86c-28.241 0.57232-79.271 30.688-119.38 26.312 0-3e-5 -89.004 168.81-85.625 171.81 7.8499 6.9853 216.07-13.407 220.53-5.6562-3.9909 9.8665 50.139 9.6011 46.563-1.4062 0.8792-2.2468 215.89 9.232 220.03 2.0625 3.7287-6.4583-110.28-164.62-110.28-164.62-51.429 0.95236-137.95-47.784-153.28-18.875-3.402-7.1993-9.9173-9.8002-18.562-9.625zm-0.5625 2.5938c3.3255-0.12329 6.7735 0.14862 9.8437 1.5 5.6543 1.1455 4.7502 10.276 10.875 9.6875 2.1791-8.3803 11.894-11.37 19.781-10.844 44.248 3.7855 85.63 25.795 130.38 27.084 10.603 14.386 20.198 29.951 30.524 44.541 68.964 102.79 74.137 108.99 69.913 112.22-104.35-5.0553-174.07-21.582-205.41-14.36-4.0943 0.94333-6.1196 6.3224-9.3742 7.2289-11.568 2.8967-24.557 4.1486-35.875-0.125-0.8254-2.2535-2.5992-6.5709-5.4375-6.8277-26.942-2.4378-54.193 0.34889-81.188 1.8125-44.558 1.8685-83.996 17.349-128.64 16.235 25.24-55.718 49.854-108.32 78.106-162.89 9.1323 0.5863 18.224 1.0146 27.156-0.67481 30.701-5.0245 58.459-21.064 89.344-24.594z" stroke="#000"/>
  <path d="m1609.1 415.18c-25.875 2.8059-49.794 14.805-75.025 21.239-10.589 2.8656-21.371 5.2388-32.35 5.5737-23.111 48.466-46.306 96.882-69.094 145.5 44.611-5.7022 86.943-22.084 131-30.363 25.171-4.8232 53.671-3.0582 73.778 14.363 4.4585 3.6373 8.4906 7.6749 12.125 12.094 18.485-20.503 46.052-32.093 73.812-30.7 46.374 1.8143 88.976 23.12 134.18 31.23-1.0434-3.5727-6.5811-10.12-9.3493-14.834l-85.272-127.45c-37.486-5.465-72.479-22.655-110.28-25.906-8.4685-0.63164-20.392 1.0448-22.477 11.02-1.6074 9.4148-2.7596 3.0475-3.9294-2.6447-1.8225-7.7616-10.193-9.7309-17.125-9.125z" fill="#fff"/>
  <path d="m1609.6 415.53c-26.248 0.34654-75.125 26.64-110.22 26.875-68.7 143.9-71.094 149.94-71.094 149.94 101.26-13.135 170.18-65.442 220.09-3.3438 59.43-64.74 134.78-12.526 213.06 0.4375l-98.406-147.03c-46.241-5.9602-126.32-45.157-135.56-14.625-1.8571-9.1186-8.3812-12.375-17.875-12.25zm1 3c1.8576 0.03262 3.7392 0.26055 5.4063 0.75 6.4896 1.2589 7.644 6.6302 10.582 11.227 5.9558 9.3193 6.0774 10.433 3.8872 0.61723-1.276-5.7188 9.64-12.189 16.875-11.844 38.898 1.8417 74.779 20.225 113.19 25.844 10.442 15.59 20.902 31.16 31.344 46.75 20.399 30.131 40.306 60.777 60.875 90.688-40.112-7.1134-80.146-26.207-121.94-29.688-30.042-3.8205-61.521 7.0118-82.156 28.875-2.5512-1.6705-5.094-5.3874-7.9062-7.5938-17.256-16.696-42.51-21.859-65.875-19.375-47.517 6.2657-92.548 25.113-140.06 31.719 22.082-47.166 43.112-95.624 65.516-142.64 37.22-1.772 71.791-21.038 108.42-25.297 0.6035-0.02947 1.2245-0.04212 1.8437-0.03125z" stroke="#000"/>
  <path d="m1649.6 458.13c-2.2095 2.0262-6.7744 6.2836-2.375 8.75 17.193 9.3381 37.834 7.3193 56.219 12.031 7.3574 2.2551 17.503 4.5974 19.844 13.031 0.076 8.9842-9.6842 13.842-17.031 16.312-31.166 8.6153-64.052 6.661-96.094 7.2131-21.74 0.40178-45.09 0.92529-64.094 12.256-3.5218 1.4806-4.1183 6.1816-0.4375 7.7812 13.505 7.6077 29.512 9.1291 44.206 13.885 12.415 3.9428 25.598 6.8965 36.606 14.021 5.8275 4.264 8.9799 11.128 8.8125 18.281 4.1924 16.4 20.402 25.187 31.736 36.396 9.0069 8.1891 17.317 17.743 21.702 29.291 2.6561-8.156 3.309-17.584 8.5-24.469 7.5708-2.9233 16.013 0.98415 23.658 2.2113 5.9112 1.4632 11.714 3.1708 17.53 4.9137-17.981-16.389-43.521-20.783-61.938-36.375-7.0253-5.4518-9.1057-14.393-12.969-21.844-8.1123-12.933-24.817-14.603-37.719-19.812-15.962-5.5539-34.713-4.8863-48.781-15.062-5.168-3.6423-0.9874-10.785 4-12 30.142-8.7615 62.205-3.9879 93.142-7.5243 15.632-1.9781 31.901-2.6864 46.67-8.5069 7.6932-3.2649 15.697-12.724 9.9687-20.969-8.6229-10.762-23.856-12.129-36.594-14.281-13.802-2.5059-29.575 1.6197-42.156-5.8438-3.2195-2.2612-3.8815-6.8122-2.0312-10.156l-0.375 0.46875z" fill="#fff"/>
  <path d="m1630.4 431.17c-0.4345-1.7858-3.1466 0.4341-1.0676 3.475 1.6865 2.4667 2.4065 4.5952 5.5953 6.6136 4.5195 2.8607 24.022 3.5192 9.8027 18.069-14.462 14.798 40.852 18.251 49.75 19.812 16.822 2.9516 29.268 9.0762 25.125 16.656-4.2488 7.7737-15.545 13.411-48.375 16.062s-54.896 0.5866-83.312 2.25c-28.177 1.6494-72.712 16.598-30.656 28.75 21.768 6.2897 42.964 10.135 63.469 19.75 5.244 2.459 11.032 9.0683 11.125 14.906 0.4494 28.288 46.993 39.082 56.125 77.281 0 1e-5 6.2851-27.385 9.1875-30.188 4.5528-4.3968 28.825 2.5632 47.594 9.7188-28.057-29.715-68.07-28.51-77.062-56.062-6.0198-18.444-20.773-21.67-34.344-25.5-24.688-6.9685-22.548-6.1996-33.591-9.0963-8.438-2.2134-17.972-4.2203-22.846-8.7162-3.0415-2.8054-0.3258-6.0466 2.6563-7.6875 5.1253-2.8201 28.465-6.0138 44.312-6.0625 24.054-0.07396 48.829-0.87007 72.094-4.6875 12.166-1.9964 24.476-3.2263 32.219-11.094 4.7244-4.8005 5.7261-8.3916 5.5625-11.75-0.7949-16.32-28.566-21.241-47.875-22.875-8.1016-0.68554-44.93 2.0431-33.844-14.5 4.2829-6.3909 3.733-11.788-6.4375-12.25-3.6531-0.16579-13.356-5.2774-15.205-12.877zm76.237 46.783c4.0735 0.43668 7.8378 0.95687 11.93 2.8311 6.0772 2.7834 14.322 10.839 9.7576 18.044-6.8946 10.884-32.923 14.716-40.644 15.359-1.7607 0.14657 11.677-2.7002 14.527-3.609 8.1198-2.5888 20.862-7.2751 22.148-16.438 1.326-9.4509-9.6649-13.589-17.125-16-0.1975-0.06381-3.3045-0.4781-0.5937-0.1875zm-47.559 38.271c-9.7851 0.36471-61.081 4.1564-73.913 6.6428-6.4727 1.2542-15.405 5.2237-14.361 11.03 0.9186 5.1062 28.377 11.351 43.15 16.237 12.462 4.1215 25.572 5.877 37.089 12.685 9.8778 5.8391 11.52 18.171 17.688 26.385 12.81 17.064 45.067 27.018 45.198 28.839 0.2757 3.8583-7.3185 9.1e-4 -17.604 2.6293-6.9046 3.1498-4.7866 13.74-9.7889 15.415-3.0839 1.0328-8.8802-9.1609-14.836-15.478-11.553-12.253-30.133-20.496-34.844-37.344-2.0011-7.1571-2.0778-16.09-8.6875-20.406-24.808-16.84-81.102-21.989-82.719-29.344-0.8597-3.9115 1.5629-6.3652 3.4636-7.3564 20.065-10.464 42.746-10.083 65.019-10.661 1.9161-0.04978 46.574 0.67315 45.146 0.72637z" stroke="#000"/>
 </g>
</svg>
